<svg xmlns="http://www.w3.org/2000/svg" version="1.1" xmlns:xlink="http://www.w3.org/1999/xlink" xmlns:svgjs="http://svgjs.dev/svgjs" width="1000" height="623" viewBox="0 0 1000 623"><g transform="matrix(1,0,0,1,-0.6060606060606233,0.2522267206477409)"><svg viewBox="0 0 396 247" data-background-color="#ffffff" preserveAspectRatio="xMidYMid meet" height="623" width="1000" xmlns="http://www.w3.org/2000/svg" xmlns:xlink="http://www.w3.org/1999/xlink"><g id="tight-bounds" transform="matrix(1,0,0,1,0.2400000000000091,-0.09999999999999432)"><svg viewBox="0 0 395.52 247.2" height="247.2" width="395.52"><g><svg></svg></g><g><svg viewBox="0 0 395.52 247.2" height="247.2" width="395.52"><mask id="87a75f25-29bb-44bb-8ee1-a04c49318da5"><rect width="640" height="400" fill="white"></rect><g transform="matrix(1,0,0,1,127.54640797354485,37.08)"><svg viewBox="0 0 140.4271840529103 173.04" height="173.04" width="140.4271840529103"><g><svg viewBox="0 0 140.4271840529103 173.04" height="173.04" width="140.4271840529103"><g><svg viewBox="0 0 140.4271840529103 173.04" height="173.04" width="140.4271840529103"><g><svg viewBox="0 0 140.4271840529103 173.04" height="173.04" width="140.4271840529103"><g id="SvgjsG1190"><svg viewBox="0 0 140.4271840529103 173.04" height="173.04" width="140.4271840529103" id="SvgjsSvg1189"><g><svg viewBox="0 0 140.4271840529103 173.04" height="173.04" width="140.4271840529103"><g transform="matrix(1,0,0,1,0,0)"><svg width="140.4271840529103" viewBox="-3.099999964237213 -38.790000915527344 35.27000045776367 43.22999954223633" height="173.04" data-palette-color="#ffdc00"><path d="M26.46-16.85L26.39-12.08Q26.39-10.33 26.78-9.25 27.17-8.18 28.15-7.57L28.15-7.57Q28.17-7.45 28.17-7.1L28.17-7.1 28.17-6.67Q28.17-3.3 26.23-1.43 24.29 0.44 21.23 0.44 18.16 0.44 16.26-1.29L16.26-1.29Q14.04-3.27 14.04-7.3L14.04-7.3Q14.04-9.01 14.2-10.31 14.36-11.62 14.42-12.18 14.48-12.74 14.55-13.23 14.62-13.72 14.62-14.67 14.62-15.63 14.37-16.04 14.11-16.46 13.66-16.46 13.21-16.46 12.87-16.26L12.87-16.26 13.18-12.28Q12.74-9.81 12.74-7.06 12.74-4.3 13.99-2.03L13.99-2.03Q11.6 0.44 7.28 0.44L7.28 0.44Q4.81 0.44 3-0.85L3-0.85Q0.9-2.32 0.9-4.74L0.9-4.74 0.9-33.23Q2.08-33.91 3.72-34.35 5.37-34.79 7.06-34.79L7.06-34.79Q9.86-34.79 11.69-33.69L11.69-33.69Q13.77-32.4 13.77-29.98L13.77-29.98 13.77-27.66Q11.65-27.54 9.69-26.44L9.69-26.44Q8.01-25.46 8.01-24.66L8.01-24.66Q8.01-24.39 8.2-24.18 8.4-23.97 8.67-23.93L8.67-23.93Q9.69-25.12 11.56-25.93 13.43-26.73 15.99-26.73 18.55-26.73 20.61-25.95L20.61-25.95Q23.19-24.98 24.68-22.97L24.68-22.97Q26.46-20.53 26.46-16.85L26.46-16.85Z" opacity="1" transform="matrix(1,0,0,1,0,0)" fill="black" class="wordmark-text-0" id="SvgjsPath1188" stroke-width="7" stroke="black" stroke-linejoin="round"></path></svg></g></svg></g></svg></g></svg></g><g></g></svg></g></svg></g></svg></g></mask><g transform="matrix(1,0,0,1,127.54640797354485,37.08)"><svg viewBox="0 0 140.4271840529103 173.04" height="173.04" width="140.4271840529103"><g><svg viewBox="0 0 140.4271840529103 173.04" height="173.04" width="140.4271840529103"><g><svg viewBox="0 0 140.4271840529103 173.04" height="173.04" width="140.4271840529103"><g><svg viewBox="0 0 140.4271840529103 173.04" height="173.04" width="140.4271840529103"><g id="textblocktransform"><svg viewBox="0 0 140.4271840529103 173.04" height="173.04" width="140.4271840529103" id="textblock"><g><svg viewBox="0 0 140.4271840529103 173.04" height="173.04" width="140.4271840529103"><g transform="matrix(1,0,0,1,0,0)"><svg width="140.4271840529103" viewBox="-3.099999964237213 -38.790000915527344 35.27000045776367 43.22999954223633" height="173.04" data-palette-color="#ffdc00"><path d="M26.46-16.85L26.39-12.08Q26.39-10.33 26.78-9.25 27.17-8.18 28.15-7.57L28.15-7.57Q28.17-7.45 28.17-7.1L28.17-7.1 28.17-6.67Q28.17-3.3 26.23-1.43 24.29 0.44 21.23 0.44 18.16 0.44 16.26-1.29L16.26-1.29Q14.04-3.27 14.04-7.3L14.04-7.3Q14.04-9.01 14.2-10.31 14.36-11.62 14.42-12.18 14.48-12.74 14.55-13.23 14.62-13.72 14.62-14.67 14.62-15.63 14.37-16.04 14.11-16.46 13.66-16.46 13.21-16.46 12.87-16.26L12.87-16.26 13.18-12.28Q12.74-9.81 12.74-7.06 12.74-4.3 13.99-2.03L13.99-2.03Q11.6 0.44 7.28 0.44L7.28 0.44Q4.81 0.44 3-0.85L3-0.85Q0.9-2.32 0.9-4.74L0.9-4.74 0.9-33.23Q2.08-33.91 3.72-34.35 5.37-34.79 7.06-34.79L7.06-34.79Q9.86-34.79 11.69-33.69L11.69-33.69Q13.77-32.4 13.77-29.98L13.77-29.98 13.77-27.66Q11.65-27.54 9.69-26.44L9.69-26.44Q8.01-25.46 8.01-24.66L8.01-24.66Q8.01-24.39 8.2-24.18 8.4-23.97 8.67-23.93L8.67-23.93Q9.69-25.12 11.56-25.93 13.43-26.73 15.99-26.73 18.55-26.73 20.61-25.95L20.61-25.95Q23.19-24.98 24.68-22.97L24.68-22.97Q26.46-20.53 26.46-16.85L26.46-16.85Z" opacity="1" transform="matrix(1,0,0,1,0,0)" fill="#ffdc00" class="wordmark-text-0" data-fill-palette-color="primary" id="text-0"></path></svg></g></svg></g></svg></g></svg></g><g></g></svg></g></svg></g></svg></g><g mask="url(#87a75f25-29bb-44bb-8ee1-a04c49318da5)"><g transform="matrix(3.5319708495418, 0, 0, 3.5319708495418, 113.08806433295517, 1)"><svg xmlns="http://www.w3.org/2000/svg" xmlns:xlink="http://www.w3.org/1999/xlink" version="1.1" x="0" y="0" viewBox="26.0260009765625 15.288999557495117 47.94599914550781 69.4229965209961" enable-background="new 0 0 100 100" xml:space="preserve" height="69.4229965209961" width="47.94599914550781" class="icon-none" data-fill-palette-color="accent" id="none"><g fill="#f4a424" data-fill-palette-color="accent"><path fill="#f4a424" d="M36.555 15.289c-5.805 0-10.527 4.723-10.527 10.528 0 5.805 4.723 10.527 10.527 10.527s10.527-4.723 10.527-10.527C47.082 20.011 42.359 15.289 36.555 15.289z" data-fill-palette-color="accent"></path><path fill="#f4a424" d="M36.555 43.081c-5.807 0-10.529 4.723-10.529 10.528 0 5.805 4.723 10.527 10.529 10.527 5.805 0 10.527-4.723 10.527-10.527C47.082 47.803 42.359 43.081 36.555 43.081z" data-fill-palette-color="accent"></path><path fill="#f4a424" d="M63.445 43.023c-5.805 0-10.527 4.723-10.527 10.528 0 5.805 4.723 10.527 10.527 10.527s10.527-4.723 10.527-10.527C73.973 47.746 69.25 43.023 63.445 43.023z" data-fill-palette-color="accent"></path><path fill="#f4a424" d="M63.445 30.229c2.604 0 4.721-2.118 4.721-4.722 0-2.603-2.117-4.72-4.721-4.72-2.602 0-4.721 2.117-4.721 4.72C58.725 28.111 60.844 30.229 63.445 30.229z" data-fill-palette-color="accent"></path><path fill="#f4a424" d="M63.445 74.212c-2.602 0-4.721 2.117-4.721 4.72 0 2.604 2.119 4.722 4.721 4.722 2.604 0 4.721-2.118 4.721-4.722C68.166 76.33 66.049 74.212 63.445 74.212z" data-fill-palette-color="accent"></path><path fill="#f4a424" d="M36.555 75.27c-2.604 0-4.721 2.117-4.721 4.72 0 2.604 2.117 4.722 4.721 4.722 2.602 0 4.721-2.118 4.721-4.722C41.275 77.387 39.156 75.27 36.555 75.27z" data-fill-palette-color="accent"></path></g></svg></g></g></svg></g><defs></defs></svg><rect width="395.52" height="247.2" fill="none" stroke="none" visibility="hidden"></rect></g></svg></g></svg>