<svg xmlns="http://www.w3.org/2000/svg" width="193.179" height="193.179" viewBox="0 0 193.179 193.179">
  <g id="Group_18852" data-name="Group 18852" transform="translate(-227 -715)">
    <path id="Path_63629" data-name="Path 63629" d="M488.031,550.652l-67.678,67.678a29.007,29.007,0,0,1-40.926,0l-67.678-67.678a29.007,29.007,0,0,1,0-40.926l67.678-67.678a29.007,29.007,0,0,1,40.926,0l67.678,67.678A29.007,29.007,0,0,1,488.031,550.652Z" transform="translate(-76.3 281.4)" fill="#e99a00"/>
    <g id="Group_18847" data-name="Group 18847" transform="translate(281.263 785.078)">
      <path id="Path_203" data-name="Path 203" d="M381.3,548.877H345.988a3.936,3.936,0,0,1-3.788-3.789V534.2a13.9,13.9,0,0,1,4.33-10.351,13.69,13.69,0,0,1,10.351-4.329h13.53a6.948,6.948,0,0,0,5.006-2.03,7.1,7.1,0,0,0-5.006-12.11H347.274a3.573,3.573,0,0,1-2.638-1.082,3.679,3.679,0,0,1-1.15-2.706,3.936,3.936,0,0,1,3.789-3.788h23.137a14.152,14.152,0,0,1,10.418,4.33,14.537,14.537,0,0,1,0,20.7,14.417,14.417,0,0,1-10.418,4.33H356.88a6.838,6.838,0,0,0-5.006,2.03,6.643,6.643,0,0,0-2.1,5.006v7.1H381.3a3.576,3.576,0,0,1,2.638,1.082,3.681,3.681,0,0,1,1.15,2.706,3.642,3.642,0,0,1-1.15,2.638A3.4,3.4,0,0,1,381.3,548.877Z" transform="translate(-342.2 -497.732)" fill="#fff"/>
      <path id="Path_204" data-name="Path 204" d="M422.189,548.844a3.936,3.936,0,0,1-3.789-3.789V501.488a3.936,3.936,0,0,1,3.789-3.789H443.7a14.783,14.783,0,0,1,14.748,14.68v1.826a13.9,13.9,0,0,1-4.33,10.351,14.152,14.152,0,0,1-10.418,4.33H425.977v16.169a3.574,3.574,0,0,1-1.082,2.638A3.537,3.537,0,0,1,422.189,548.844Zm3.788-27.6H443.7a6.948,6.948,0,0,0,5.006-2.03,6.838,6.838,0,0,0,2.029-5.006V512.38a7.045,7.045,0,0,0-7.036-7.1H425.977Z" transform="translate(-366.85 -497.7)" fill="#fff"/>
    </g>
  </g>
</svg>
